<?xml version="1.0" standalone="no"?>
<!DOCTYPE svg PUBLIC "-//W3C//DTD SVG 20010904//EN"
 "http://www.w3.org/TR/2001/REC-SVG-20010904/DTD/svg10.dtd">
<svg version="1.0" xmlns="http://www.w3.org/2000/svg"
 width="50.000000pt" height="50.000000pt" viewBox="0 0 50.000000 50.000000"
 preserveAspectRatio="xMidYMid meet">

<g transform="translate(0.000000,50.000000) scale(0.100000,-0.100000)"
fill="#000000" stroke="none">
<path d="M163 464 c-3 -8 -1 -20 6 -27 7 -7 11 -71 11 -192 0 -177 1 -182 23
-203 30 -28 68 -28 95 1 21 22 22 32 22 203 0 121 4 184 11 191 7 7 9 19 6 27
-9 23 -165 23 -174 0z m115 -11 c-55 -5 -65 -23 -13 -23 32 0 35 -2 35 -30 0
-29 -1 -30 -51 -30 l-52 0 6 39 c4 32 1 41 -12 44 -9 3 18 4 59 4 49 0 58 -2
28 -4z m22 -242 c0 -148 -7 -171 -50 -171 -43 0 -50 23 -50 171 l0 139 50 0
50 0 0 -139z"/>
<path d="M244 279 c-10 -17 13 -36 27 -22 12 12 4 33 -11 33 -5 0 -12 -5 -16
-11z"/>
<path d="M220 175 c0 -8 7 -15 15 -15 8 0 15 7 15 15 0 8 -7 15 -15 15 -8 0
-15 -7 -15 -15z"/>
</g>
</svg>
