<?xml version="1.0" standalone="no"?>
<!DOCTYPE svg PUBLIC "-//W3C//DTD SVG 20010904//EN"
 "http://www.w3.org/TR/2001/REC-SVG-20010904/DTD/svg10.dtd">
<svg version="1.0" xmlns="http://www.w3.org/2000/svg"
 width="50.000000pt" height="50.000000pt" viewBox="0 0 50.000000 50.000000"
 preserveAspectRatio="xMidYMid meet">

<g transform="translate(0.000000,50.000000) scale(0.100000,-0.100000)"
fill="#000000" stroke="none">
<path d="M165 430 c-14 -15 -31 -20 -71 -20 -81 0 -84 -6 -84 -170 0 -113 3
-142 16 -154 23 -24 425 -24 448 0 13 12 16 41 16 154 0 164 -3 170 -84 170
-40 0 -57 5 -71 20 -15 16 -31 20 -85 20 -54 0 -70 -4 -85 -20z m162 -20 c10
-15 26 -20 75 -22 l63 -3 0 -145 0 -145 -215 0 -215 0 0 145 0 145 63 3 c49 2
65 7 75 22 10 17 23 20 77 20 54 0 67 -3 77 -20z"/>
<path d="M74 356 c-10 -26 4 -48 28 -44 33 4 33 52 0 56 -13 2 -25 -3 -28 -12z
m36 -16 c0 -5 -4 -10 -10 -10 -5 0 -10 5 -10 10 0 6 5 10 10 10 6 0 10 -4 10
-10z"/>
<path d="M198 334 c-30 -16 -58 -61 -58 -94 0 -53 57 -110 110 -110 34 0 78
28 95 60 19 37 19 63 0 100 -28 54 -94 74 -147 44z m113 -33 c39 -40 39 -82 0
-122 -20 -20 -39 -29 -61 -29 -43 0 -90 47 -90 90 0 43 47 90 90 90 22 0 41
-9 61 -29z"/>
</g>
</svg>
