<?xml version="1.0" standalone="no"?>
<!DOCTYPE svg PUBLIC "-//W3C//DTD SVG 20010904//EN"
 "http://www.w3.org/TR/2001/REC-SVG-20010904/DTD/svg10.dtd">
<svg version="1.0" xmlns="http://www.w3.org/2000/svg"
 width="50.000000pt" height="50.000000pt" viewBox="0 0 50.000000 50.000000"
 preserveAspectRatio="xMidYMid meet">

<g transform="translate(0.000000,50.000000) scale(0.100000,-0.100000)"
fill="#000000" stroke="none">
<path d="M260 430 c-57 -31 -183 -133 -199 -161 -18 -32 -9 -84 22 -130 49
-74 184 -111 257 -71 43 23 97 109 106 168 11 77 -3 134 -46 176 -44 44 -83
49 -140 18z m125 -33 c41 -41 52 -92 37 -166 -21 -99 -82 -161 -158 -161 -120
0 -230 119 -180 195 17 26 141 123 191 149 46 24 73 20 110 -17z"/>
<path d="M290 380 c0 -5 5 -10 10 -10 6 0 10 5 10 10 0 6 -4 10 -10 10 -5 0
-10 -4 -10 -10z"/>
<path d="M340 355 c0 -8 7 -15 15 -15 8 0 15 7 15 15 0 8 -7 15 -15 15 -8 0
-15 -7 -15 -15z"/>
<path d="M205 314 c-57 -29 -90 -73 -44 -59 20 7 20 6 4 -25 -9 -18 -13 -35
-9 -38 4 -4 9 0 12 8 9 26 60 70 81 70 12 0 21 5 21 11 0 11 -28 9 -62 -6 -10
-4 -18 -3 -18 2 0 11 44 33 65 33 8 0 15 5 15 10 0 15 -31 12 -65 -6z"/>
<path d="M323 285 c-6 -18 23 -55 44 -55 22 0 27 29 8 50 -22 24 -43 26 -52 5z
m45 -24 c3 -8 -1 -12 -9 -9 -7 2 -15 10 -17 17 -3 8 1 12 9 9 7 -2 15 -10 17
-17z"/>
<path d="M215 225 c-14 -13 -25 -36 -25 -50 0 -14 11 -37 25 -50 13 -14 36
-25 50 -25 33 0 75 42 75 75 0 33 -42 75 -75 75 -14 0 -37 -11 -50 -25z m87
-12 c34 -31 11 -93 -35 -93 -27 0 -57 28 -57 53 0 48 56 73 92 40z"/>
<path d="M254 169 c-10 -17 13 -36 27 -22 12 12 4 33 -11 33 -5 0 -12 -5 -16
-11z"/>
<path d="M140 150 c0 -5 5 -10 10 -10 6 0 10 5 10 10 0 6 -4 10 -10 10 -5 0
-10 -4 -10 -10z"/>
</g>
</svg>
