<?xml version="1.0" standalone="no"?>
<!DOCTYPE svg PUBLIC "-//W3C//DTD SVG 20010904//EN"
 "http://www.w3.org/TR/2001/REC-SVG-20010904/DTD/svg10.dtd">
<svg version="1.0" xmlns="http://www.w3.org/2000/svg"
 width="64.000000pt" height="64.000000pt" viewBox="0 0 64.000000 64.000000"
 preserveAspectRatio="xMidYMid meet">

<g transform="translate(0.000000,64.000000) scale(0.100000,-0.100000)"
fill="#000000" stroke="none">
<path d="M247 594 c-4 -4 -7 -31 -7 -60 l0 -53 -77 -3 -78 -3 -3 -92 -3 -93
81 -51 c44 -28 80 -57 80 -65 0 -10 -23 -14 -97 -16 -79 -2 -98 -6 -98 -18 0
-12 19 -16 98 -18 l97 -3 0 -34 c0 -39 18 -55 35 -31 11 14 14 14 25 1 8 -9
26 -14 54 -12 40 3 41 4 44 40 l3 37 68 0 c39 0 72 -5 79 -12 10 -10 17 -7 34
10 l22 22 -22 22 c-17 17 -24 20 -34 10 -18 -18 -148 -16 -148 2 0 8 36 37 80
65 l80 51 0 90 c0 85 -1 91 -22 99 -25 10 -14 17 32 23 40 5 31 32 -12 36 -54
5 -80 -24 -76 -86 2 -38 7 -47 21 -46 14 2 17 -7 17 -46 l0 -48 -80 -51 c-44
-28 -80 -55 -80 -60 0 -6 -7 -8 -15 -4 -14 5 -14 8 -2 22 22 24 19 106 -3 126
-40 36 -80 -6 -44 -46 16 -18 16 -20 1 -37 -21 -23 -22 -48 -1 -60 14 -8 14
-10 0 -21 -14 -12 -16 -10 -16 8 0 16 -21 35 -80 72 l-80 51 0 64 0 64 59 0
60 0 3 -37 c3 -43 31 -54 36 -15 3 22 5 23 22 7 10 -9 27 -15 37 -13 10 2 23
-3 29 -11 17 -21 34 -4 34 35 0 38 15 46 23 13 10 -40 32 -14 37 44 6 69 24
89 87 97 34 3 48 10 48 20 0 11 -12 15 -52 15 -44 -1 -58 -6 -82 -29 -17 -16
-33 -42 -36 -57 -11 -47 -24 -33 -27 29 -2 43 -7 57 -18 57 -8 0 -16 -10 -18
-21 -2 -16 -8 -20 -23 -17 -11 3 -28 -2 -39 -12 -18 -16 -19 -16 -22 16 -3 32
-17 46 -31 33z m113 -126 c0 -40 0 -41 -20 -23 -11 10 -28 15 -40 12 -14 -4
-20 0 -20 13 0 13 6 16 23 13 14 -3 29 2 36 11 19 23 21 21 21 -26z m0 -350
c0 -30 -1 -31 -17 -16 -13 14 -14 20 -3 32 18 22 20 20 20 -16z"/>
</g>
</svg>
