<?xml version="1.0" standalone="no"?>
<!DOCTYPE svg PUBLIC "-//W3C//DTD SVG 20010904//EN"
 "http://www.w3.org/TR/2001/REC-SVG-20010904/DTD/svg10.dtd">
<svg version="1.0" xmlns="http://www.w3.org/2000/svg"
 width="60.000000pt" height="60.000000pt" viewBox="0 0 60.000000 60.000000"
 preserveAspectRatio="xMidYMid meet">

<g transform="translate(0.000000,60.000000) scale(0.100000,-0.100000)"
fill="#000000" stroke="none">
<path d="M46 491 c-11 -18 1 -28 40 -34 48 -8 104 -47 148 -105 20 -25 36 -48
36 -52 0 -3 -15 -25 -32 -49 l-33 -42 -3 73 c-3 68 -13 98 -33 98 -5 0 -9 -47
-9 -105 0 -94 -2 -105 -20 -115 -20 -10 -20 -8 -20 119 0 108 -3 130 -16 135
-9 3 -18 6 -20 6 -2 0 -4 -62 -4 -139 0 -133 -1 -139 -21 -144 -12 -3 -19 -12
-17 -19 12 -35 99 -12 162 43 25 23 80 85 121 139 82 106 128 145 190 158 41
8 56 34 23 40 -46 9 -103 -21 -171 -89 l-69 -69 -49 55 c-28 30 -65 63 -83 74
-39 25 -111 38 -120 22z"/>
<path d="M493 413 c-10 -3 -13 -40 -13 -134 0 -127 0 -129 -20 -119 -18 10
-20 21 -20 115 0 58 -4 105 -8 105 -23 0 -32 -29 -32 -99 l0 -76 -23 29 c-23
29 -47 29 -47 1 0 -7 25 -36 56 -64 53 -48 114 -76 151 -69 25 5 28 29 4 35
-20 5 -21 11 -21 144 0 77 -3 139 -7 138 -5 0 -14 -3 -20 -6z"/>
</g>
</svg>
