<?xml version="1.0" standalone="no"?>
<!DOCTYPE svg PUBLIC "-//W3C//DTD SVG 20010904//EN"
 "http://www.w3.org/TR/2001/REC-SVG-20010904/DTD/svg10.dtd">
<svg version="1.0" xmlns="http://www.w3.org/2000/svg"
 width="50.000000pt" height="50.000000pt" viewBox="0 0 50.000000 50.000000"
 preserveAspectRatio="xMidYMid meet">

<g transform="translate(0.000000,50.000000) scale(0.100000,-0.100000)"
fill="#000000" stroke="none">
<path d="M100 452 c0 -58 30 -132 70 -172 l39 -39 -44 -43 c-42 -43 -65 -94
-65 -150 0 -40 20 -35 21 5 2 78 36 126 137 191 79 51 117 92 132 144 13 47
13 92 0 92 -5 0 -10 -4 -10 -10 0 -6 -42 -10 -105 -10 -63 0 -105 -4 -105 -10
0 -6 42 -10 105 -10 63 0 105 -4 105 -10 0 -6 -40 -10 -100 -10 -60 0 -100 -4
-100 -10 0 -6 38 -10 95 -10 57 0 95 -4 95 -10 0 -6 -37 -10 -90 -10 -53 0
-90 -4 -90 -10 0 -6 35 -10 86 -10 54 0 83 -4 79 -10 -3 -5 -35 -10 -71 -10
-36 0 -64 -4 -64 -10 0 -5 26 -10 58 -10 40 0 53 -3 42 -10 -8 -5 -26 -10 -39
-10 -17 0 -22 -4 -17 -15 8 -22 -24 -3 -60 35 -33 34 -52 81 -53 128 -1 39
-21 44 -21 5 0 -57 23 -108 66 -152 25 -24 42 -46 40 -48 -3 -3 -24 15 -49 39
-43 44 -67 101 -67 162 0 14 -4 26 -10 26 -5 0 -10 -13 -10 -28z"/>
<path d="M410 453 c0 -42 -20 -104 -42 -136 -11 -16 -58 -53 -104 -83 -46 -31
-92 -70 -104 -88 -24 -39 -39 -126 -21 -126 6 0 11 12 11 28 1 63 34 108 124
167 47 31 95 70 107 87 38 52 65 178 39 178 -5 0 -10 -12 -10 -27z"/>
<path d="M320 224 c0 -4 15 -21 33 -39 33 -32 57 -90 57 -139 0 -14 5 -26 10
-26 13 0 13 45 -1 93 -14 51 -99 145 -99 111z"/>
<path d="M294 195 c4 -11 -2 -15 -24 -15 -17 0 -30 -4 -30 -10 0 -5 22 -10 49
-10 28 0 53 -4 56 -10 4 -6 -22 -10 -69 -10 -44 0 -76 -4 -76 -10 0 -6 33 -10
79 -10 44 0 83 -4 86 -10 4 -6 -28 -10 -89 -10 -57 0 -96 -4 -96 -10 0 -6 40
-10 100 -10 60 0 100 -4 100 -10 0 -6 -42 -10 -105 -10 -63 0 -105 -4 -105
-10 0 -6 42 -10 105 -10 63 0 105 -4 105 -10 0 -5 5 -10 10 -10 30 0 -4 113
-47 157 -35 35 -59 44 -49 18z"/>
</g>
</svg>
