<?xml version="1.0" standalone="no"?>
<!DOCTYPE svg PUBLIC "-//W3C//DTD SVG 20010904//EN"
 "http://www.w3.org/TR/2001/REC-SVG-20010904/DTD/svg10.dtd">
<svg version="1.0" xmlns="http://www.w3.org/2000/svg"
 width="50.000000pt" height="50.000000pt" viewBox="0 0 50.000000 50.000000"
 preserveAspectRatio="xMidYMid meet">

<g transform="translate(0.000000,50.000000) scale(0.100000,-0.100000)"
fill="#000000" stroke="none">
<path d="M219 408 c0 -85 -1 -90 -12 -58 -18 53 -45 51 -98 -8 -62 -68 -102
-152 -107 -223 -4 -51 -2 -58 18 -69 14 -7 45 -10 77 -8 77 7 114 45 121 122
8 100 56 100 64 0 4 -45 10 -61 36 -87 26 -26 40 -31 90 -35 78 -6 96 11 90
84 -5 64 -48 151 -107 216 -53 59 -80 61 -98 8 -11 -32 -12 -27 -12 58 l-1 92
-30 0 -30 0 -1 -92z m-28 -69 c12 -44 9 -86 -7 -100 -14 -11 -18 -11 -29 4 -7
10 -11 27 -8 37 3 11 0 20 -6 20 -6 0 -11 -13 -11 -28 0 -22 -7 -30 -30 -39
-16 -6 -30 -16 -30 -22 0 -8 6 -9 19 -1 11 5 32 10 46 10 37 0 27 -23 -14 -31
-18 -4 -41 -15 -50 -24 -15 -17 -15 -17 4 -10 11 4 31 10 45 13 23 4 22 1 -14
-32 -21 -20 -36 -39 -32 -43 3 -4 12 0 19 8 6 8 23 23 36 34 l24 20 -5 -22
c-4 -13 -2 -25 2 -28 8 -5 15 23 23 84 1 8 8 16 15 19 16 5 16 -57 1 -92 -17
-36 -66 -58 -119 -54 l-45 3 -3 43 c-4 56 40 153 99 217 45 49 60 52 70 14z
m189 -15 c58 -63 102 -160 98 -216 l-3 -43 -44 -3 c-56 -4 -98 13 -116 49 -19
35 -20 102 -2 97 6 -3 13 -11 14 -19 8 -61 15 -89 23 -84 4 3 6 15 2 28 l-5
22 24 -20 c13 -11 30 -26 36 -34 7 -8 16 -12 19 -8 4 4 -11 23 -32 43 l-39 37
45 -7 c43 -6 44 -5 20 9 -14 8 -37 14 -52 15 -18 0 -28 5 -28 15 0 18 41 20
71 5 13 -8 19 -7 19 1 0 6 -13 16 -30 22 -21 8 -30 18 -30 34 0 12 -4 25 -10
28 -6 4 -10 -6 -10 -24 0 -36 -15 -48 -37 -30 -12 10 -14 25 -10 61 10 83 18
86 77 22z m-118 -6 c3 -24 8 -52 12 -63 8 -20 7 -20 -8 -1 -16 20 -16 20 -32
0 -15 -19 -16 -19 -9 1 4 11 10 39 12 63 3 23 9 42 13 42 5 0 10 -19 12 -42z"/>
</g>
</svg>
