<?xml version="1.0" standalone="no"?>
<!DOCTYPE svg PUBLIC "-//W3C//DTD SVG 20010904//EN"
 "http://www.w3.org/TR/2001/REC-SVG-20010904/DTD/svg10.dtd">
<svg version="1.0" xmlns="http://www.w3.org/2000/svg"
 width="64.000000pt" height="64.000000pt" viewBox="0 0 64.000000 64.000000"
 preserveAspectRatio="xMidYMid meet">
<metadata>
Created by potrace 1.10, written by Peter Selinger 2001-2011
</metadata>
<g transform="translate(0.000000,64.000000) scale(0.100000,-0.100000)"
fill="#000000" stroke="none">
<path d="M125 535 c-16 -9 -43 -28 -58 -43 -104 -98 -74 -278 56 -341 40 -19
60 -21 275 -21 135 0 233 4 237 10 3 5 -8 45 -25 90 l-31 80 20 26 c29 37 26
70 -8 105 -32 31 -55 36 -95 18 -20 -10 -29 -8 -58 14 -69 52 -119 70 -203 74
-60 3 -87 0 -110 -12z m199 -45 c29 -12 75 -39 100 -61 43 -38 76 -46 76 -20
0 19 41 23 61 5 26 -24 24 -39 -11 -66 l-31 -24 35 -74 34 -75 -196 -3 c-159
-2 -205 0 -238 13 -110 42 -147 176 -71 262 58 66 140 80 241 43z"/>
<path d="M501 231 c-15 -10 -8 -41 9 -41 15 0 25 29 14 40 -5 5 -15 5 -23 1z"/>
</g>
</svg>
