<?xml version="1.0" encoding="UTF-8"?>
<svg version="1.1" xmlns="http://www.w3.org/2000/svg" width="64" height="64">
<path d="M0 0 C1.26015092 0.9026613 2.51443575 1.81396648 3.75 2.75 C4.08 2.42 4.41 2.09 4.75 1.75 C7.80411614 1.31635268 10.69863588 1.29122847 13.75 1.75 C16.4695874 3.8726048 17.50414996 5.30634569 18.0859375 8.72265625 C18.24471699 11.98984958 18.30650896 14.1258778 16.078125 16.625 C15.63984375 17.32625 15.2015625 18.0275 14.75 18.75 C15.49101412 21.70081215 15.49101412 21.70081215 17.0625 24.6875 C18.9397738 28.58493721 20.21071837 31.38488869 19.75 35.75 C18.226666 37.273334 16.86493094 36.89184842 14.74023438 36.91113281 C13.88844604 36.92074036 13.03665771 36.9303479 12.15905762 36.94024658 C10.76548035 36.9466214 10.76548035 36.9466214 9.34375 36.953125 C8.38988403 36.95882507 7.43601807 36.96452515 6.45324707 36.97039795 C4.42554845 36.97986931 2.39783429 36.98639036 0.37011719 36.99023438 C-2.70926619 36.99987251 -5.78796291 37.03084719 -8.8671875 37.0625 C-10.83853771 37.06903668 -12.80989269 37.07428453 -14.78125 37.078125 C-16.1505365 37.0966452 -16.1505365 37.0966452 -17.54748535 37.11553955 C-24.84693867 37.09056094 -32.50125893 36.01565425 -38.125 30.9375 C-38.65867187 30.47730469 -39.19234375 30.01710937 -39.7421875 29.54296875 C-43.63354796 24.91567742 -44.66421577 20.7107966 -44.625 14.75 C-44.63273437 13.574375 -44.64046875 12.39875 -44.6484375 11.1875 C-43.8458086 4.26285855 -40.46703112 0.49070345 -35.28515625 -3.76953125 C-24.63614383 -11.51612569 -9.95904157 -6.59766961 0 0 Z M-37.0859375 6.12890625 C-39.94049569 10.1042138 -39.8104483 14.00175742 -39.25 18.75 C-37.51775684 23.58898361 -34.50237963 26.91508025 -30.25 29.75 C-27.51893489 30.66035504 -25.95106761 30.87215713 -23.14575195 30.86352539 C-21.9148156 30.86341209 -21.9148156 30.86341209 -20.65901184 30.86329651 C-19.77767075 30.85813522 -18.89632965 30.85297394 -17.98828125 30.84765625 C-17.08248825 30.8462413 -16.17669525 30.84482635 -15.24345398 30.84336853 C-12.34976909 30.83777001 -9.45616151 30.82521781 -6.5625 30.8125 C-4.60091258 30.80748481 -2.63932394 30.80292193 -0.67773438 30.79882812 C4.13154021 30.78780107 8.940757 30.77053747 13.75 30.75 C13.3890625 29.93015625 13.028125 29.1103125 12.65625 28.265625 C12.1921875 27.18796875 11.728125 26.1103125 11.25 25 C10.7859375 23.93265625 10.321875 22.8653125 9.84375 21.765625 C8.75 18.75 8.75 18.75 8.75 14.75 C10.75 13 10.75 13 12.75 11.75 C12.255 9.77 12.255 9.77 11.75 7.75 C9.275 7.255 9.275 7.255 6.75 6.75 C6.42 7.74 6.09 8.73 5.75 9.75 C1.83556494 8.77139123 -0.85600474 7.391025 -3.9375 4.875 C-9.40783306 0.59113073 -15.62898393 -1.76255553 -22.5 -2.6875 C-29.33829241 -1.59958984 -32.84064169 0.85066414 -37.0859375 6.12890625 Z " fill="#313131" transform="translate(44.25,15.25)"/>
<path d="M0 0 C2.475 0.495 2.475 0.495 5 1 C4.67 2.32 4.34 3.64 4 5 C2.68 5 1.36 5 0 5 C0 3.35 0 1.7 0 0 Z " fill="#303030" transform="translate(49,40)"/>
</svg>
