<?xml version="1.0" standalone="no"?>
<!DOCTYPE svg PUBLIC "-//W3C//DTD SVG 20010904//EN"
 "http://www.w3.org/TR/2001/REC-SVG-20010904/DTD/svg10.dtd">
<svg version="1.0" xmlns="http://www.w3.org/2000/svg"
 width="50.000000pt" height="50.000000pt" viewBox="0 0 50.000000 50.000000"
 preserveAspectRatio="xMidYMid meet">
<metadata>
Created by potrace 1.10, written by Peter Selinger 2001-2011
</metadata>
<g transform="translate(0.000000,50.000000) scale(0.100000,-0.100000)"
fill="#000000" stroke="none">
<path d="M225 492 c-13 -13 -2 -22 26 -22 19 0 29 4 27 12 -4 12 -44 19 -53
10z"/>
<path d="M182 328 l3 -133 65 0 65 0 3 73 c2 45 -1 72 -8 72 -6 0 -10 -25 -10
-60 l0 -60 -50 0 -50 0 0 105 0 105 50 0 c38 0 50 -4 50 -15 0 -10 -10 -15
-30 -15 -20 0 -30 -5 -30 -15 0 -11 11 -15 40 -15 46 0 99 -40 120 -90 11 -28
11 -33 -9 -51 -26 -25 -27 -51 -1 -74 12 -11 20 -31 20 -52 l0 -33 -154 0
c-85 0 -161 -3 -170 -6 -9 -3 -16 -17 -16 -30 l0 -24 180 0 180 0 0 65 c0 54
3 66 20 75 13 7 20 21 20 40 0 19 -7 34 -20 42 -11 7 -20 22 -20 33 0 30 -46
92 -80 110 -25 13 -30 22 -30 50 l0 35 -70 0 -71 0 3 -132z m265 -124 c3 -8
-1 -22 -9 -30 -13 -14 -17 -14 -32 1 -13 13 -14 20 -5 31 15 19 38 18 46 -2z
m-114 -171 c-46 -2 -120 -2 -165 0 -46 1 -9 3 82 3 91 0 128 -2 83 -3z"/>
<path d="M180 130 c0 -6 30 -10 70 -10 40 0 70 4 70 10 0 6 -30 10 -70 10 -40
0 -70 -4 -70 -10z"/>
</g>
</svg>
