<?xml version="1.0" encoding="UTF-8"?>
<svg version="1.1" xmlns="http://www.w3.org/2000/svg" width="50" height="50">
<path d="M0 0 C1.27875 0.00257812 2.5575 0.00515625 3.875 0.0078125 C5.15375 0.00523438 6.4325 0.00265625 7.75 0 C10.875 0.1328125 10.875 0.1328125 11.875 1.1328125 C11.91580783 3.13239614 11.91754356 5.13326504 11.875 7.1328125 C12.6175 7.3596875 13.36 7.5865625 14.125 7.8203125 C18.28534373 9.8059311 20.17207045 12.65666044 22.125 16.7578125 C22.875 19.1328125 22.875 19.1328125 22.875 22.1328125 C23.865 22.4628125 24.855 22.7928125 25.875 23.1328125 C26.5625 25.9453125 26.5625 25.9453125 26.875 29.1328125 C26.400625 29.5453125 25.92625 29.9578125 25.4375 30.3828125 C23.01168502 33.09972528 23.35095191 35.75706091 23.1875 39.3203125 C23.12175781 40.59261719 23.05601563 41.86492188 22.98828125 43.17578125 C22.93220703 44.63951172 22.93220703 44.63951172 22.875 46.1328125 C17.78468245 46.18217408 12.69450357 46.21851355 7.60400391 46.24267578 C5.87155735 46.25274626 4.13912784 46.26640339 2.40673828 46.28369141 C-0.08044639 46.30789412 -2.56740675 46.31928489 -5.0546875 46.328125 C-5.83182098 46.33844757 -6.60895447 46.34877014 -7.40963745 46.35940552 C-9.31625493 46.35980521 -11.22231036 46.2551339 -13.125 46.1328125 C-13.785 45.4728125 -14.445 44.8128125 -15.125 44.1328125 C-14.58928571 40.59709821 -14.58928571 40.59709821 -13.125 39.1328125 C-10.67669574 39.04437457 -8.25679401 39.01752498 -5.80859375 39.03515625 C-5.07753922 39.0365712 -4.34648468 39.03798615 -3.59327698 39.03944397 C-1.24964368 39.04505842 1.09389539 39.05761328 3.4375 39.0703125 C5.02278508 39.07532564 6.60807166 39.07988887 8.19335938 39.08398438 C12.0872761 39.09503253 15.98112205 39.11230678 19.875 39.1328125 C19.875 36.8228125 19.875 34.5128125 19.875 32.1328125 C18.555 31.4728125 17.235 30.8128125 15.875 30.1328125 C15.75 27.2578125 15.75 27.2578125 15.875 24.1328125 C16.535 23.4728125 17.195 22.8128125 17.875 22.1328125 C17.53583005 18.94461498 16.88906317 16.17500201 15.875 13.1328125 C13.75714887 12.01496137 13.75714887 12.01496137 10.875 11.1328125 C10.10542969 10.87242188 9.33585937 10.61203125 8.54296875 10.34375 C6.323739 9.5958521 4.1010009 8.86026378 1.875 8.1328125 C1.875 7.4728125 1.875 6.8128125 1.875 6.1328125 C3.855 6.1328125 5.835 6.1328125 7.875 6.1328125 C7.875 5.1428125 7.875 4.1528125 7.875 3.1328125 C5.235 3.1328125 2.595 3.1328125 -0.125 3.1328125 C-0.125 10.0628125 -0.125 16.9928125 -0.125 24.1328125 C2.515 24.1328125 5.155 24.1328125 7.875 24.1328125 C7.875 20.1728125 7.875 16.2128125 7.875 12.1328125 C9.195 12.4628125 10.515 12.7928125 11.875 13.1328125 C11.90185938 15.27857887 11.92133088 17.42443895 11.9375 19.5703125 C11.94910156 20.76527344 11.96070312 21.96023437 11.97265625 23.19140625 C11.875 26.1328125 11.875 26.1328125 10.875 27.1328125 C8.54339945 27.23190552 6.20870058 27.26251754 3.875 27.2578125 C2.59625 27.26039062 1.3175 27.26296875 0 27.265625 C-3.125 27.1328125 -3.125 27.1328125 -4.125 26.1328125 C-4.22459621 24.29122227 -4.25580411 22.44584283 -4.2578125 20.6015625 C-4.25974609 18.92126953 -4.25974609 18.92126953 -4.26171875 17.20703125 C-4.25785156 16.02753906 -4.25398438 14.84804688 -4.25 13.6328125 C-4.25386719 12.45332031 -4.25773437 11.27382812 -4.26171875 10.05859375 C-4.26042969 8.93839844 -4.25914063 7.81820313 -4.2578125 6.6640625 C-4.25668457 5.62830078 -4.25555664 4.59253906 -4.25439453 3.52539062 C-4.05773073 -0.11103444 -3.72371542 0.15825791 0 0 Z M19.875 25.1328125 C19.875 26.4528125 19.875 27.7728125 19.875 29.1328125 C20.865 28.8028125 21.855 28.4728125 22.875 28.1328125 C22.875 27.1428125 22.875 26.1528125 22.875 25.1328125 C21.885 25.1328125 20.895 25.1328125 19.875 25.1328125 Z M-11.125 42.1328125 C-11.125 42.4628125 -11.125 42.7928125 -11.125 43.1328125 C-0.895 43.1328125 9.335 43.1328125 19.875 43.1328125 C19.875 42.8028125 19.875 42.4728125 19.875 42.1328125 C9.645 42.1328125 -0.585 42.1328125 -11.125 42.1328125 Z " fill="#000000" transform="translate(21.125,3.8671875)"/>
<path d="M0 0 C1.08152344 -0.02578125 2.16304687 -0.0515625 3.27734375 -0.078125 C4.19644531 0.03015625 5.11554687 0.1384375 6.0625 0.25 C6.7225 1.24 7.3825 2.23 8.0625 3.25 C7.0625 4.25 7.0625 4.25 3.90234375 4.34765625 C1.97068359 4.33025391 1.97068359 4.33025391 0 4.3125 C-1.29035156 4.30347656 -2.58070312 4.29445313 -3.91015625 4.28515625 C-4.90917969 4.27355469 -5.90820312 4.26195312 -6.9375 4.25 C-6.9375 -0.94963032 -4.62491659 0.06599168 0 0 Z " fill="#000000" transform="translate(24.9375,34.75)"/>
<path d="M0 0 C1.98 0 3.96 0 6 0 C6 0.99 6 1.98 6 3 C3.69 3 1.38 3 -1 3 C-0.67 2.01 -0.34 1.02 0 0 Z " fill="#000000" transform="translate(22,0)"/>
</svg>
