<?xml version="1.0" standalone="no"?>
<!DOCTYPE svg PUBLIC "-//W3C//DTD SVG 20010904//EN"
 "http://www.w3.org/TR/2001/REC-SVG-20010904/DTD/svg10.dtd">
<svg version="1.0" xmlns="http://www.w3.org/2000/svg"
 width="50.000000pt" height="50.000000pt" viewBox="0 0 50.000000 50.000000"
 preserveAspectRatio="xMidYMid meet">

<g transform="translate(0.000000,50.000000) scale(0.100000,-0.100000)"
fill="#000000" stroke="none">
<path d="M81 456 c-44 -24 -50 -51 -51 -203 0 -217 5 -223 219 -223 215 0 221
6 221 220 0 155 -9 187 -55 208 -37 17 -302 16 -334 -2z m344 -31 c24 -23 25
-28 25 -175 0 -147 -1 -152 -25 -175 -23 -24 -28 -25 -175 -25 -147 0 -152 1
-175 25 -24 23 -25 28 -25 175 0 147 1 152 25 175 23 24 28 25 175 25 147 0
152 -1 175 -25z"/>
<path d="M267 392 c-16 -16 -27 -39 -27 -55 0 -22 -5 -27 -23 -27 -13 0 -36
-13 -51 -29 -22 -23 -27 -35 -22 -56 5 -19 3 -25 -5 -20 -10 7 -58 -39 -59
-57 0 -13 85 -68 106 -68 33 0 77 57 70 90 -4 24 -2 27 20 22 38 -7 87 43 80
81 -4 19 -2 26 5 21 10 -6 58 41 59 58 0 13 -84 68 -105 68 -12 0 -33 -13 -48
-28z m89 -13 c19 -11 34 -22 34 -24 0 -14 -14 -35 -24 -35 -17 0 -66 49 -66
65 0 21 17 19 56 -6z m-41 -64 c27 -50 28 -56 14 -71 -15 -14 -19 -11 -43 30
-25 44 -33 76 -19 89 12 13 18 7 48 -48z m-46 -62 c25 -25 32 -38 23 -41 -21
-7 -62 19 -78 50 -13 25 -13 28 2 28 9 0 32 -16 53 -37z m-31 -97 c-5 -37 -25
-26 -54 28 -24 46 -26 56 -14 70 12 15 16 12 42 -31 15 -26 27 -57 26 -67z
m-67 -5 c50 -50 34 -68 -27 -30 -38 23 -36 21 -28 43 9 23 22 20 55 -13z"/>
</g>
</svg>
