<?xml version="1.0" standalone="no"?>
<!DOCTYPE svg PUBLIC "-//W3C//DTD SVG 20010904//EN"
 "http://www.w3.org/TR/2001/REC-SVG-20010904/DTD/svg10.dtd">
<svg version="1.0" xmlns="http://www.w3.org/2000/svg"
 width="50.000000pt" height="50.000000pt" viewBox="0 0 50.000000 50.000000"
 preserveAspectRatio="xMidYMid meet">
<metadata>
Created by potrace 1.10, written by Peter Selinger 2001-2011
</metadata>
<g transform="translate(0.000000,50.000000) scale(0.100000,-0.100000)"
fill="#000000" stroke="none">
<path d="M70 250 l0 -220 50 0 50 0 0 80 0 80 35 0 c33 0 36 -3 75 -80 l40
-80 55 0 c30 0 55 2 55 5 0 3 -18 42 -41 86 l-40 82 33 34 c30 31 33 40 33 93
0 48 -4 63 -25 85 -41 45 -78 55 -205 55 l-115 0 0 -220z m253 186 c68 -28 93
-94 62 -160 -10 -20 -20 -36 -24 -36 -3 0 -14 -7 -24 -14 -17 -13 -16 -18 20
-88 21 -40 39 -76 41 -80 2 -5 -11 -8 -30 -8 -31 0 -35 4 -73 78 l-40 77 -52
3 -53 3 0 -80 0 -81 -30 0 -30 0 0 200 0 200 100 0 c63 0 113 -5 133 -14z"/>
<path d="M150 330 l0 -80 70 0 c62 0 74 3 95 25 33 32 33 78 0 110 -21 22 -33
25 -95 25 l-70 0 0 -80z m150 40 c25 -25 25 -55 0 -80 -15 -15 -33 -20 -75
-20 l-55 0 0 60 0 60 55 0 c42 0 60 -5 75 -20z"/>
</g>
</svg>
