<?xml version="1.0" encoding="UTF-8"?>
<svg version="1.1" xmlns="http://www.w3.org/2000/svg" width="50" height="50">
<path d="M0 0 C4.16625 -0.0825 8.3325 -0.165 12.625 -0.25 C13.92775879 -0.28641602 15.23051758 -0.32283203 16.57275391 -0.36035156 C27.30256129 -0.46334708 27.30256129 -0.46334708 32 4 C35.0411651 7.11864701 35.4794492 9.49939525 35.5625 13.8125 C35.46106658 19.33724004 34.23822858 22.07394444 30.3125 25.890625 C29.879375 26.25671875 29.44625 26.6228125 29 27 C29.5053125 27.89203125 30.010625 28.7840625 30.53125 29.703125 C31.18794226 30.88517107 31.84416789 32.06747647 32.5 33.25 C32.83386719 33.83652344 33.16773438 34.42304687 33.51171875 35.02734375 C35.36076806 38.38582107 36 40.06645784 36 44 C32.04 44 28.08 44 24 44 C23.49210937 42.92878906 22.98421875 41.85757813 22.4609375 40.75390625 C21.76677437 39.35619941 21.07139805 37.95909464 20.375 36.5625 C20.04371094 35.85544922 19.71242188 35.14839844 19.37109375 34.41992188 C19.02949219 33.74638672 18.68789063 33.07285156 18.3359375 32.37890625 C18.03220215 31.7557251 17.7284668 31.13254395 17.41552734 30.49047852 C15.63978952 28.32121633 15.63978952 28.32121633 10 28 C10 33.28 10 38.56 10 44 C6.7 44 3.4 44 0 44 C0 29.48 0 14.96 0 0 Z M2 2 C2 15.2 2 28.4 2 42 C3.98 42 5.96 42 8 42 C8 36.72 8 31.44 8 26 C15.04663212 25.38341969 15.04663212 25.38341969 19 27 C22.70018214 31.3046605 24.82319366 36.81683074 27 42 C28.65 42 30.3 42 32 42 C30.98697731 38.53883916 29.79288611 35.51406751 27.9375 32.4375 C26.24079334 29.427214 25.40948907 27.37828479 25 24 C25.78375 23.731875 26.5675 23.46375 27.375 23.1875 C30.28114923 22.15185568 30.28114923 22.15185568 32 19 C32.66863221 15.56216535 32.69863771 12.43452432 32 9 C30.09719298 6.25820314 27.97892157 4.48946079 25 3 C17.21901097 1.53420287 17.21901097 1.53420287 2 2 Z " fill="#000000" transform="translate(7,3)"/>
<path d="M0 0 C2.3925 -0.0825 4.785 -0.165 7.25 -0.25 C7.99668945 -0.28641602 8.74337891 -0.32283203 9.51269531 -0.36035156 C12.87419799 -0.41640674 14.70251494 -0.21411345 17.453125 1.765625 C19.07896746 4.11406411 19.54399761 5.1841531 19.5 8 C19.5103125 8.66 19.520625 9.32 19.53125 10 C18.72335473 13.04148806 17.54915443 14.16525828 15 16 C12.2317375 16.29449601 9.98597978 16.38343363 7.25 16.25 C4.8575 16.1675 2.465 16.085 0 16 C0 10.72 0 5.44 0 0 Z M2 2 C2 5.96 2 9.92 2 14 C8.72167478 14.22904469 8.72167478 14.22904469 15 12 C16.33187793 10.88833136 16.33187793 10.88833136 16.1875 8.0625 C16.33278733 4.89107141 16.33278733 4.89107141 14 3 C10.15899602 1.52269078 6.04749486 1.93254175 2 2 Z " fill="#000000" transform="translate(15,9)"/>
</svg>
