<?xml version="1.0" standalone="no"?>
<!DOCTYPE svg PUBLIC "-//W3C//DTD SVG 20010904//EN"
 "http://www.w3.org/TR/2001/REC-SVG-20010904/DTD/svg10.dtd">
<svg version="1.0" xmlns="http://www.w3.org/2000/svg"
 width="64.000000pt" height="64.000000pt" viewBox="0 0 64.000000 64.000000"
 preserveAspectRatio="xMidYMid meet">
<metadata>
Created by potrace 1.10, written by Peter Selinger 2001-2011
</metadata>
<g transform="translate(0.000000,64.000000) scale(0.100000,-0.100000)"
fill="#000000" stroke="none">
<path d="M470 590 c0 -6 -56 -11 -142 -12 l-143 -2 137 -3 c116 -3 136 -6 132
-18 -5 -12 -30 -15 -118 -17 l-111 -2 100 -5 c87 -5 97 -8 78 -18 -12 -7 -46
-14 -75 -14 -51 -2 -52 -2 -13 -8 l40 -6 -70 -30 c-194 -82 -194 -184 1 -271
l86 -39 -58 -6 -59 -6 75 -2 c48 -1 82 -7 94 -16 18 -14 8 -15 -100 -17 l-119
-2 124 -6 c87 -3 126 -9 129 -17 3 -10 -30 -13 -140 -15 -78 0 -129 -3 -113
-4 43 -5 297 -10 286 -6 -6 2 -7 10 -4 19 5 12 3 14 -7 8 -10 -6 -12 -4 -7 8
4 10 2 17 -5 17 -6 0 -18 8 -27 18 -9 10 -43 31 -76 46 -130 60 -146 69 -176
97 -17 15 -28 33 -25 38 4 5 0 12 -6 15 -11 5 -11 7 0 12 6 3 9 10 6 15 -10
16 48 64 112 93 118 55 149 71 165 89 9 9 21 17 27 17 7 0 9 7 5 17 -5 12 -3
14 7 8 10 -6 12 -4 7 8 -3 9 -1 18 6 21 7 2 4 5 -5 5 -10 1 -18 -3 -18 -9z"/>
<path d="M297 413 c18 -2 50 -2 70 0 21 2 7 4 -32 4 -38 0 -55 -2 -38 -4z"/>
<path d="M273 373 c37 -2 96 -2 130 0 34 2 4 3 -68 3 -71 0 -99 -1 -62 -3z"/>
<path d="M253 333 c42 -2 112 -2 155 0 42 1 7 3 -78 3 -85 0 -120 -2 -77 -3z"/>
<path d="M258 293 c39 -2 105 -2 145 0 39 1 7 3 -73 3 -80 0 -112 -2 -72 -3z"/>
<path d="M282 253 c32 -2 84 -2 115 0 32 2 6 3 -57 3 -63 0 -89 -1 -58 -3z"/>
</g>
</svg>
