<?xml version="1.0" standalone="no"?>
<!DOCTYPE svg PUBLIC "-//W3C//DTD SVG 20010904//EN"
 "http://www.w3.org/TR/2001/REC-SVG-20010904/DTD/svg10.dtd">
<svg version="1.0" xmlns="http://www.w3.org/2000/svg"
 width="60.000000pt" height="60.000000pt" viewBox="0 0 60.000000 60.000000"
 preserveAspectRatio="xMidYMid meet">
<metadata>
Created by potrace 1.10, written by Peter Selinger 2001-2011
</metadata>
<g transform="translate(0.000000,60.000000) scale(0.100000,-0.100000)"
fill="#000000" stroke="none">
<path d="M71 506 c-8 -9 -11 -75 -9 -217 l3 -204 235 0 235 0 3 204 c2 142 -1
208 -9 217 -17 20 -441 20 -458 0z m429 -236 l0 -150 -200 0 -200 0 0 150 0
150 200 0 200 0 0 -150z"/>
<path d="M160 328 c0 -7 12 -25 27 -40 l27 -28 -29 -30 c-23 -24 -26 -33 -17
-42 10 -10 21 -3 54 30 l42 42 -39 40 c-39 40 -65 51 -65 28z"/>
<path d="M285 210 c-14 -22 12 -31 81 -28 53 2 69 6 69 18 0 12 -16 16 -72 18
-45 2 -74 -1 -78 -8z"/>
</g>
</svg>
