<?xml version="1.0" encoding="UTF-8"?>
<svg version="1.1" xmlns="http://www.w3.org/2000/svg" width="60" height="60">
<path d="M0 0 C0.91765137 -0.00315216 1.83530273 -0.00630432 2.78076172 -0.009552 C4.27760498 -0.00651566 4.27760498 -0.00651566 5.8046875 -0.00341797 C6.82191895 -0.00437469 7.83915039 -0.00533142 8.88720703 -0.00631714 C11.04264386 -0.00699908 13.19808272 -0.00514382 15.35351562 -0.00097656 C18.66541121 0.00437148 21.97717117 -0.0009211 25.2890625 -0.00732422 C27.37760447 -0.00666344 29.46614635 -0.00538228 31.5546875 -0.00341797 C32.55258301 -0.0054422 33.55047852 -0.00746643 34.57861328 -0.009552 C35.49626465 -0.00639984 36.41391602 -0.00324768 37.359375 0 C38.17132324 0.00079559 38.98327148 0.00159119 39.81982422 0.00241089 C41.6796875 0.12939453 41.6796875 0.12939453 42.6796875 1.12939453 C42.77237749 2.48034435 42.79716076 3.83606544 42.79321289 5.19018555 C42.79309204 6.06308228 42.79297119 6.935979 42.79284668 7.83532715 C42.78773071 8.75865845 42.78261475 9.68198975 42.77734375 10.63330078 C42.77633667 11.47759644 42.77532959 12.32189209 42.77429199 13.19177246 C42.7690432 16.35849355 42.75508206 19.52519535 42.7421875 22.69189453 C42.7215625 29.76626953 42.7009375 36.84064453 42.6796875 44.12939453 C26.8396875 44.12939453 10.9996875 44.12939453 -5.3203125 44.12939453 C-5.3409375 37.05501953 -5.3615625 29.98064453 -5.3828125 22.69189453 C-5.3919165 20.45609619 -5.40102051 18.22029785 -5.41040039 15.91674805 C-5.41331946 14.15559957 -5.41586804 12.39445042 -5.41796875 10.63330078 C-5.4256427 9.24830383 -5.4256427 9.24830383 -5.43347168 7.83532715 C-5.43359253 6.96243042 -5.43371338 6.08953369 -5.43383789 5.19018555 C-5.4360585 4.42851578 -5.43827911 3.66684601 -5.44056702 2.88209534 C-5.19806752 -0.65231706 -3.01782807 0.00295704 0 0 Z M-1.3203125 10.12939453 C-1.3203125 20.02939453 -1.3203125 29.92939453 -1.3203125 40.12939453 C11.8796875 40.12939453 25.0796875 40.12939453 38.6796875 40.12939453 C38.6796875 30.22939453 38.6796875 20.32939453 38.6796875 10.12939453 C25.4796875 10.12939453 12.2796875 10.12939453 -1.3203125 10.12939453 Z " fill="#000000" transform="translate(11.3203125,7.87060546875)"/>
<path d="M0 0 C3.52775489 0.30237899 5.03808865 1.02980851 7.875 3.25 C10 6 10 6 10.125 8.5 C8.63086898 11.82029115 6.81504967 13.7086805 4 16 C2.68 16 1.36 16 0 16 C0.55728913 12.65626525 1.35173889 9.96687001 3 7 C1.68 5.35 0.36 3.7 -1 2 C-0.67 1.34 -0.34 0.68 0 0 Z " fill="#000000" transform="translate(16,26)"/>
<path d="M0 0 C5.28 0 10.56 0 16 0 C16 1.32 16 2.64 16 4 C10.72 4 5.44 4 0 4 C0 2.68 0 1.36 0 0 Z " fill="#000000" transform="translate(28,38)"/>
</svg>
