<?xml version="1.0" encoding="UTF-8"?>
<svg version="1.1" xmlns="http://www.w3.org/2000/svg" width="50" height="50">
<path d="M0 0 C13.86 0 27.72 0 42 0 C42 13.86 42 27.72 42 42 C28.14 42 14.28 42 0 42 C0 28.14 0 14.28 0 0 Z M2 3 C1.89904436 5.65456193 1.86029002 8.28255176 1.8671875 10.9375 C1.86623077 11.732771 1.86527405 12.52804199 1.86428833 13.34741211 C1.86360657 15.0320646 1.86546057 16.71671971 1.86962891 18.40136719 C1.87497725 20.98899197 1.86968381 23.57644316 1.86328125 26.1640625 C1.86394203 27.79687539 1.8652232 29.42968816 1.8671875 31.0625 C1.86516327 31.84165771 1.86313904 32.62081543 1.86105347 33.42358398 C1.5416042 37.007942 1.5416042 37.007942 3 40 C5.65456193 40.10095564 8.28255176 40.13970998 10.9375 40.1328125 C12.13040649 40.13424759 12.13040649 40.13424759 13.34741211 40.13571167 C15.0320646 40.13639343 16.71671971 40.13453943 18.40136719 40.13037109 C20.98899197 40.12502275 23.57644316 40.13031619 26.1640625 40.13671875 C27.79687539 40.13605797 29.42968816 40.1347768 31.0625 40.1328125 C31.84165771 40.13483673 32.62081543 40.13686096 33.42358398 40.13894653 C37.007942 40.4583958 37.007942 40.4583958 40 39 C40.10095564 36.34543807 40.13970998 33.71744824 40.1328125 31.0625 C40.13376923 30.267229 40.13472595 29.47195801 40.13571167 28.65258789 C40.13639343 26.9679354 40.13453943 25.28328029 40.13037109 23.59863281 C40.12502275 21.01100803 40.13031619 18.42355684 40.13671875 15.8359375 C40.13605797 14.20312461 40.1347768 12.57031184 40.1328125 10.9375 C40.13483673 10.15834229 40.13686096 9.37918457 40.13894653 8.57641602 C40.4583958 4.992058 40.4583958 4.992058 39 2 C36.34543807 1.89904436 33.71744824 1.86029002 31.0625 1.8671875 C30.267229 1.86623077 29.47195801 1.86527405 28.65258789 1.86428833 C26.9679354 1.86360657 25.28328029 1.86546057 23.59863281 1.86962891 C21.01100803 1.87497725 18.42355684 1.86968381 15.8359375 1.86328125 C14.20312461 1.86394203 12.57031184 1.8652232 10.9375 1.8671875 C10.15834229 1.86516327 9.37918457 1.86313904 8.57641602 1.86105347 C4.992058 1.5416042 4.992058 1.5416042 2 3 Z " fill="#000000" transform="translate(4,4)"/>
<path d="M0 0 C-0.33 1.32 -0.66 2.64 -1 4 C-0.4225 3.319375 0.155 2.63875 0.75 1.9375 C1.4925 1.298125 2.235 0.65875 3 0 C5 0.3125 5 0.3125 7 1 C8.32 0.67 9.64 0.34 11 0 C11 2.97 11 5.94 11 9 C11.99 9 12.98 9 14 9 C14 9.66 14 10.32 14 11 C12.02 11 10.04 11 8 11 C8 11.66 8 12.32 8 13 C5.23723823 12.47731534 2.6739124 11.89130413 0 11 C-1.0209375 11.2784375 -1.0209375 11.2784375 -2.0625 11.5625 C-3.0215625 11.7790625 -3.0215625 11.7790625 -4 12 C-4.66 11.34 -5.32 10.68 -6 10 C-5.01 9.34 -4.02 8.68 -3 8 C-3.66 7.34 -4.32 6.68 -5 6 C-5.125 3.375 -5.125 3.375 -5 1 C-3 0 -3 0 0 0 Z M4 4 C4 5.32 4 6.64 4 8 C4.33 6.68 4.66 5.36 5 4 C4.67 4 4.34 4 4 4 Z " fill="#000000" transform="translate(21,19)"/>
</svg>
