<?xml version="1.0" standalone="no"?>
<!DOCTYPE svg PUBLIC "-//W3C//DTD SVG 20010904//EN"
 "http://www.w3.org/TR/2001/REC-SVG-20010904/DTD/svg10.dtd">
<svg version="1.0" xmlns="http://www.w3.org/2000/svg"
 width="50.000000pt" height="50.000000pt" viewBox="0 0 50.000000 50.000000"
 preserveAspectRatio="xMidYMid meet">
<metadata>
Created by potrace 1.10, written by Peter Selinger 2001-2011
</metadata>
<g transform="translate(0.000000,50.000000) scale(0.100000,-0.100000)"
fill="#000000" stroke="none">
<path d="M45 447 c-3 -7 -4 -100 -3 -207 l3 -195 205 0 205 0 0 205 0 205
-203 3 c-159 2 -204 0 -207 -11z m395 -197 l0 -190 -190 0 -190 0 0 190 0 190
190 0 190 0 0 -190z"/>
<path d="M163 285 c-3 -9 2 -24 11 -34 20 -22 20 -31 1 -31 -8 0 -15 -5 -15
-11 0 -18 45 -5 48 14 2 10 -4 27 -14 38 -16 17 -16 19 -1 19 10 0 17 5 17 10
0 16 -40 11 -47 -5z"/>
<path d="M224 276 c-3 -14 -4 -36 0 -48 6 -25 52 -52 62 -37 3 5 2 9 -3 9 -4
0 -8 21 -8 47 0 42 -3 48 -22 51 -17 3 -24 -3 -29 -22z m36 -26 c0 -16 -4 -30
-10 -30 -5 0 -10 14 -10 30 0 17 5 30 10 30 6 0 10 -13 10 -30z"/>
<path d="M298 250 c3 -41 7 -50 23 -50 10 0 19 5 19 10 0 6 -4 10 -10 10 -5 0
-10 18 -10 40 0 25 -5 40 -12 40 -9 0 -12 -15 -10 -50z"/>
</g>
</svg>
