<?xml version="1.0" standalone="no"?>
<!DOCTYPE svg PUBLIC "-//W3C//DTD SVG 20010904//EN"
 "http://www.w3.org/TR/2001/REC-SVG-20010904/DTD/svg10.dtd">
<svg version="1.0" xmlns="http://www.w3.org/2000/svg"
 width="512.000000pt" height="512.000000pt" viewBox="0 0 512.000000 512.000000"
 preserveAspectRatio="xMidYMid meet">

<g transform="translate(0.000000,512.000000) scale(0.100000,-0.100000)"
fill="#000000" stroke="none">
<path d="M4087 5104 c-32 -7 -79 -26 -105 -41 -28 -16 -193 -171 -409 -387
l-363 -360 -88 87 c-157 154 -215 157 -356 19 -83 -82 -106 -120 -106 -176 0
-59 18 -88 113 -184 l92 -92 -651 -653 c-358 -358 -666 -674 -683 -700 -46
-68 -79 -147 -103 -246 -11 -47 -25 -95 -30 -106 -6 -11 -128 -139 -272 -285
-165 -166 -269 -280 -281 -305 -101 -217 118 -440 335 -339 44 20 106 76 315
283 143 142 270 264 282 270 12 6 61 20 109 31 105 25 192 65 271 124 32 25
147 134 256 244 173 173 198 203 199 231 1 41 -30 74 -71 74 -27 0 -61 -30
-253 -219 -250 -246 -282 -268 -445 -310 -54 -13 -118 -34 -143 -46 -31 -15
-131 -107 -316 -290 -241 -238 -275 -268 -303 -268 -45 0 -86 24 -101 60 -26
64 -16 78 254 350 139 140 266 275 281 299 15 24 38 89 52 145 50 201 18 162
750 896 l653 655 202 -202 203 -203 -329 -329 c-292 -292 -329 -333 -329 -361
0 -18 8 -40 21 -52 12 -13 34 -21 52 -21 28 0 69 37 361 329 l329 329 92 -92
c51 -51 106 -97 121 -102 36 -14 88 -14 124 0 40 15 172 147 194 194 39 84 21
132 -97 255 l-88 91 362 362 c325 326 364 369 392 428 42 90 55 174 42 256
-31 185 -169 328 -351 363 -69 13 -112 12 -184 -6z m207 -154 c112 -42 180
-142 180 -265 0 -123 -3 -128 -399 -525 l-355 -355 -202 203 -203 202 360 359
c325 323 365 361 415 379 71 27 135 27 204 2z m-884 -1055 l475 -475 -60 -60
c-33 -33 -64 -60 -70 -60 -13 0 -945 932 -945 945 0 10 110 125 120 125 3 0
219 -214 480 -475z"/>
<path d="M876 1210 c-34 -30 -289 -458 -342 -575 -117 -255 26 -548 303 -620
151 -39 303 4 419 120 98 97 131 183 86 227 -24 24 -73 28 -97 8 -9 -8 -26
-32 -37 -54 -28 -57 -74 -103 -133 -134 -67 -35 -187 -38 -255 -6 -127 60
-202 210 -170 342 7 31 64 141 147 284 74 128 137 236 141 240 4 4 63 -90 131
-208 68 -118 134 -222 145 -230 51 -36 124 8 112 68 -3 15 -70 139 -149 275
-150 259 -178 293 -238 293 -17 0 -42 -12 -63 -30z"/>
</g>
</svg>
