<svg xmlns="http://www.w3.org/2000/svg" version="1.1" xmlns:xlink="http://www.w3.org/1999/xlink" xmlns:svgjs="http://svgjs.dev/svgjs" width="1000" height="560" preserveAspectRatio="none" viewBox="0 0 1000 560"><g mask="url(&quot;#SvgjsMask1012&quot;)" fill="none"><rect width="1000" height="560" x="0" y="0" fill="#0e2a47"></rect><path d="M0,307.61C75.112,321.513,149.519,370.288,221.456,344.593C295.959,317.981,361.684,250.029,377.956,172.607C393.966,96.431,318.389,32.741,303.036,-43.57C288.946,-113.602,328.306,-191.575,292.275,-253.258C254.717,-317.555,183.494,-362.987,109.885,-374.233C38.958,-385.069,-29.682,-348.183,-91.583,-311.902C-143.232,-281.63,-177.323,-232.676,-213.291,-184.818C-246.789,-140.245,-271.06,-93.028,-294.201,-42.3C-326.542,28.598,-403.724,98.88,-375.911,171.673C-348.609,243.128,-246.303,245.311,-174.369,271.324C-117.384,291.931,-59.584,296.581,0,307.61" fill="#0b2239"></path><path d="M1000 962.175C1089.011 974.315 1188.823 1019.971 1263.911 970.654 1339.06 921.297 1325.4940000000001 807.468 1361.188 724.9490000000001 1395.926 644.64 1480.637 579.254 1470.824 492.306 1461 405.25800000000004 1375.41 350.101 1312.055 289.602 1254.21 234.36399999999998 1196.004 176.245 1118.629 155.986 1042.36 136.017 960.514 147.622 888.004 178.575 820.221 207.51 777.23 269.527 726.7819999999999 323.255 674.046 379.419 606.422 426.219 585.781 500.444 564.057 578.564 576.6949999999999 664.19 611.623 737.366 646.246 809.904 709.062 864.201 778.625 904.467 845.988 943.4590000000001 922.88 951.6569999999999 1000 962.175" fill="#113255"></path></g><defs><mask id="SvgjsMask1012"><rect width="1000" height="560" fill="#ffffff"></rect></mask></defs></svg>